<mxfile host="65bd71144e">
    <diagram id="L1MEDP7csyHDJyZuhOBM" name="Page-1">
        <mxGraphModel dx="1040" dy="624" grid="1" gridSize="10" guides="1" tooltips="1" connect="1" arrows="1" fold="1" page="1" pageScale="1" pageWidth="850" pageHeight="1100" math="0" shadow="0">
            <root>
                <mxCell id="0"/>
                <mxCell id="1" parent="0"/>
                <mxCell id="126" value="Positions" style="shape=table;startSize=30;container=1;collapsible=0;childLayout=tableLayout;fixedRows=1;rowLines=0;fontStyle=1;strokeColor=#FF0000;" vertex="1" parent="1">
                    <mxGeometry y="40" width="360" height="140" as="geometry"/>
                </mxCell>
                <mxCell id="127" value="" style="shape=tableRow;horizontal=0;startSize=0;swimlaneHead=0;swimlaneBody=0;top=0;left=0;bottom=0;right=0;collapsible=0;dropTarget=0;fillColor=none;points=[[0,0.5],[1,0.5]];portConstraint=eastwest;" vertex="1" parent="126">
                    <mxGeometry y="30" width="360" height="30" as="geometry"/>
                </mxCell>
                <mxCell id="128" value="1" style="shape=partialRectangle;html=1;whiteSpace=wrap;connectable=0;fillColor=none;top=0;left=0;bottom=0;right=0;overflow=hidden;pointerEvents=1;" vertex="1" parent="127">
                    <mxGeometry width="81" height="30" as="geometry">
                        <mxRectangle width="81" height="30" as="alternateBounds"/>
                    </mxGeometry>
                </mxCell>
                <mxCell id="129" value="owner, amount, startingEpoch, open, unlockEpoch" style="shape=partialRectangle;html=1;whiteSpace=wrap;connectable=0;fillColor=none;top=0;left=0;bottom=0;right=0;align=left;spacingLeft=6;overflow=hidden;" vertex="1" parent="127">
                    <mxGeometry x="81" width="279" height="30" as="geometry">
                        <mxRectangle width="279" height="30" as="alternateBounds"/>
                    </mxGeometry>
                </mxCell>
                <mxCell id="130" value="" style="shape=tableRow;horizontal=0;startSize=0;swimlaneHead=0;swimlaneBody=0;top=0;left=0;bottom=0;right=0;collapsible=0;dropTarget=0;fillColor=none;points=[[0,0.5],[1,0.5]];portConstraint=eastwest;" vertex="1" parent="126">
                    <mxGeometry y="60" width="360" height="30" as="geometry"/>
                </mxCell>
                <mxCell id="131" value="2" style="shape=partialRectangle;html=1;whiteSpace=wrap;connectable=0;fillColor=none;top=0;left=0;bottom=0;right=0;overflow=hidden;" vertex="1" parent="130">
                    <mxGeometry width="81" height="30" as="geometry">
                        <mxRectangle width="81" height="30" as="alternateBounds"/>
                    </mxGeometry>
                </mxCell>
                <mxCell id="132" value="..." style="shape=partialRectangle;html=1;whiteSpace=wrap;connectable=0;fillColor=none;top=0;left=0;bottom=0;right=0;align=left;spacingLeft=6;overflow=hidden;" vertex="1" parent="130">
                    <mxGeometry x="81" width="279" height="30" as="geometry">
                        <mxRectangle width="279" height="30" as="alternateBounds"/>
                    </mxGeometry>
                </mxCell>
                <mxCell id="133" value="" style="shape=tableRow;horizontal=0;startSize=0;swimlaneHead=0;swimlaneBody=0;top=0;left=0;bottom=0;right=0;collapsible=0;dropTarget=0;fillColor=none;points=[[0,0.5],[1,0.5]];portConstraint=eastwest;" vertex="1" parent="126">
                    <mxGeometry y="90" width="360" height="30" as="geometry"/>
                </mxCell>
                <mxCell id="134" value="3" style="shape=partialRectangle;html=1;whiteSpace=wrap;connectable=0;fillColor=none;top=0;left=0;bottom=0;right=0;overflow=hidden;" vertex="1" parent="133">
                    <mxGeometry width="81" height="30" as="geometry">
                        <mxRectangle width="81" height="30" as="alternateBounds"/>
                    </mxGeometry>
                </mxCell>
                <mxCell id="135" value="..." style="shape=partialRectangle;html=1;whiteSpace=wrap;connectable=0;fillColor=none;top=0;left=0;bottom=0;right=0;align=left;spacingLeft=6;overflow=hidden;" vertex="1" parent="133">
                    <mxGeometry x="81" width="279" height="30" as="geometry">
                        <mxRectangle width="279" height="30" as="alternateBounds"/>
                    </mxGeometry>
                </mxCell>
                <mxCell id="137" value="lock" style="whiteSpace=wrap;html=1;aspect=fixed;" vertex="1" parent="1">
                    <mxGeometry x="40" y="280" width="80" height="80" as="geometry"/>
                </mxCell>
                <mxCell id="203" value="Unlock Schedule" style="shape=table;startSize=30;container=1;collapsible=0;childLayout=tableLayout;fixedRows=1;rowLines=0;fontStyle=1;strokeColor=#FF8000;" vertex="1" parent="1">
                    <mxGeometry x="400" y="40" width="120" height="140" as="geometry"/>
                </mxCell>
                <mxCell id="204" value="" style="shape=tableRow;horizontal=0;startSize=0;swimlaneHead=0;swimlaneBody=0;top=0;left=0;bottom=0;right=0;collapsible=0;dropTarget=0;fillColor=none;points=[[0,0.5],[1,0.5]];portConstraint=eastwest;" vertex="1" parent="203">
                    <mxGeometry y="30" width="120" height="30" as="geometry"/>
                </mxCell>
                <mxCell id="205" value="epoch17" style="shape=partialRectangle;html=1;whiteSpace=wrap;connectable=0;fillColor=none;top=0;left=0;bottom=0;right=0;overflow=hidden;pointerEvents=1;" vertex="1" parent="204">
                    <mxGeometry width="52" height="30" as="geometry">
                        <mxRectangle width="52" height="30" as="alternateBounds"/>
                    </mxGeometry>
                </mxCell>
                <mxCell id="206" value="amount" style="shape=partialRectangle;html=1;whiteSpace=wrap;connectable=0;fillColor=none;top=0;left=0;bottom=0;right=0;align=left;spacingLeft=6;overflow=hidden;" vertex="1" parent="204">
                    <mxGeometry x="52" width="68" height="30" as="geometry">
                        <mxRectangle width="68" height="30" as="alternateBounds"/>
                    </mxGeometry>
                </mxCell>
                <mxCell id="207" value="" style="shape=tableRow;horizontal=0;startSize=0;swimlaneHead=0;swimlaneBody=0;top=0;left=0;bottom=0;right=0;collapsible=0;dropTarget=0;fillColor=none;points=[[0,0.5],[1,0.5]];portConstraint=eastwest;" vertex="1" parent="203">
                    <mxGeometry y="60" width="120" height="30" as="geometry"/>
                </mxCell>
                <mxCell id="208" value="epoch18" style="shape=partialRectangle;html=1;whiteSpace=wrap;connectable=0;fillColor=none;top=0;left=0;bottom=0;right=0;overflow=hidden;" vertex="1" parent="207">
                    <mxGeometry width="52" height="30" as="geometry">
                        <mxRectangle width="52" height="30" as="alternateBounds"/>
                    </mxGeometry>
                </mxCell>
                <mxCell id="209" value="..." style="shape=partialRectangle;html=1;whiteSpace=wrap;connectable=0;fillColor=none;top=0;left=0;bottom=0;right=0;align=left;spacingLeft=6;overflow=hidden;" vertex="1" parent="207">
                    <mxGeometry x="52" width="68" height="30" as="geometry">
                        <mxRectangle width="68" height="30" as="alternateBounds"/>
                    </mxGeometry>
                </mxCell>
                <mxCell id="210" value="" style="shape=tableRow;horizontal=0;startSize=0;swimlaneHead=0;swimlaneBody=0;top=0;left=0;bottom=0;right=0;collapsible=0;dropTarget=0;fillColor=none;points=[[0,0.5],[1,0.5]];portConstraint=eastwest;" vertex="1" parent="203">
                    <mxGeometry y="90" width="120" height="30" as="geometry"/>
                </mxCell>
                <mxCell id="211" value="epoch19" style="shape=partialRectangle;html=1;whiteSpace=wrap;connectable=0;fillColor=none;top=0;left=0;bottom=0;right=0;overflow=hidden;" vertex="1" parent="210">
                    <mxGeometry width="52" height="30" as="geometry">
                        <mxRectangle width="52" height="30" as="alternateBounds"/>
                    </mxGeometry>
                </mxCell>
                <mxCell id="212" value="..." style="shape=partialRectangle;html=1;whiteSpace=wrap;connectable=0;fillColor=none;top=0;left=0;bottom=0;right=0;align=left;spacingLeft=6;overflow=hidden;" vertex="1" parent="210">
                    <mxGeometry x="52" width="68" height="30" as="geometry">
                        <mxRectangle width="68" height="30" as="alternateBounds"/>
                    </mxGeometry>
                </mxCell>
                <mxCell id="219" value="vlCvx.lock()" style="ellipse;whiteSpace=wrap;html=1;aspect=fixed;" vertex="1" parent="1">
                    <mxGeometry x="160" y="280" width="80" height="80" as="geometry"/>
                </mxCell>
                <mxCell id="239" value="lastRelockEpoch" style="rounded=0;whiteSpace=wrap;html=1;strokeColor=#FFFF00;" vertex="1" parent="1">
                    <mxGeometry x="560" y="40" width="120" height="140" as="geometry"/>
                </mxCell>
                <mxCell id="240" value="cvxToLeaveUnlocked" style="rounded=0;whiteSpace=wrap;html=1;strokeColor=#007FFF;" vertex="1" parent="1">
                    <mxGeometry x="720" y="40" width="120" height="140" as="geometry"/>
                </mxCell>
                <mxCell id="266" value="" style="endArrow=classic;html=1;strokeColor=#FFFFFF;exitX=1;exitY=0.5;exitDx=0;exitDy=0;entryX=0;entryY=0.5;entryDx=0;entryDy=0;" edge="1" parent="1" source="137" target="219">
                    <mxGeometry width="50" height="50" relative="1" as="geometry">
                        <mxPoint x="380" y="200" as="sourcePoint"/>
                        <mxPoint x="430" y="150" as="targetPoint"/>
                    </mxGeometry>
                </mxCell>
                <mxCell id="273" value="Save Position" style="shape=cylinder3;whiteSpace=wrap;html=1;boundedLbl=1;backgroundOutline=1;size=15;strokeColor=#FFFFFF;" vertex="1" parent="1">
                    <mxGeometry x="280" y="280" width="80" height="80" as="geometry"/>
                </mxCell>
                <mxCell id="284" value="" style="shape=link;html=1;strokeColor=#FFFFFF;" edge="1" parent="1">
                    <mxGeometry width="100" relative="1" as="geometry">
                        <mxPoint y="180" as="sourcePoint"/>
                        <mxPoint x="920" y="180" as="targetPoint"/>
                    </mxGeometry>
                </mxCell>
                <mxCell id="285" value="" style="shape=link;html=1;strokeColor=#FFFFFF;" edge="1" parent="1">
                    <mxGeometry width="100" relative="1" as="geometry">
                        <mxPoint x="920" y="960" as="sourcePoint"/>
                        <mxPoint x="920" y="180" as="targetPoint"/>
                    </mxGeometry>
                </mxCell>
                <mxCell id="288" value="" style="endArrow=classic;html=1;strokeColor=#FF0000;exitX=0.5;exitY=0;exitDx=0;exitDy=0;exitPerimeter=0;" edge="1" parent="1" source="273">
                    <mxGeometry width="50" height="50" relative="1" as="geometry">
                        <mxPoint x="380" y="300" as="sourcePoint"/>
                        <mxPoint x="920" y="260" as="targetPoint"/>
                        <Array as="points">
                            <mxPoint x="320" y="260"/>
                        </Array>
                    </mxGeometry>
                </mxCell>
                <mxCell id="289" value="requestUnlock" style="whiteSpace=wrap;html=1;aspect=fixed;" vertex="1" parent="1">
                    <mxGeometry x="30" y="460" width="80" height="80" as="geometry"/>
                </mxCell>
                <mxCell id="291" value="" style="endArrow=classic;html=1;strokeColor=#FFFFFF;" edge="1" parent="1">
                    <mxGeometry width="50" height="50" relative="1" as="geometry">
                        <mxPoint x="110" y="500" as="sourcePoint"/>
                        <mxPoint x="150" y="500" as="targetPoint"/>
                    </mxGeometry>
                </mxCell>
                <mxCell id="292" value="Calculate &amp;amp; save unlockEpoch" style="ellipse;whiteSpace=wrap;html=1;aspect=fixed;" vertex="1" parent="1">
                    <mxGeometry x="150" y="460" width="80" height="80" as="geometry"/>
                </mxCell>
                <mxCell id="295" value="" style="endArrow=classic;html=1;strokeColor=#FFFFFF;exitX=1;exitY=0.5;exitDx=0;exitDy=0;entryX=0;entryY=0.5;entryDx=0;entryDy=0;entryPerimeter=0;" edge="1" parent="1" source="219" target="273">
                    <mxGeometry width="50" height="50" relative="1" as="geometry">
                        <mxPoint x="130" y="330" as="sourcePoint"/>
                        <mxPoint x="170" y="330" as="targetPoint"/>
                    </mxGeometry>
                </mxCell>
                <mxCell id="297" value="" style="endArrow=classic;html=1;strokeColor=#FFFFFF;entryX=0;entryY=0.5;entryDx=0;entryDy=0;entryPerimeter=0;exitX=1;exitY=0.5;exitDx=0;exitDy=0;" edge="1" parent="1" source="292">
                    <mxGeometry width="50" height="50" relative="1" as="geometry">
                        <mxPoint x="120" y="510" as="sourcePoint"/>
                        <mxPoint x="270" y="500" as="targetPoint"/>
                    </mxGeometry>
                </mxCell>
                <mxCell id="299" value="add amount to&lt;br&gt;unlockSchedule[unlockEpoch]" style="shape=cylinder3;whiteSpace=wrap;html=1;boundedLbl=1;backgroundOutline=1;size=15;strokeColor=#FFFFFF;" vertex="1" parent="1">
                    <mxGeometry x="270" y="460" width="200" height="80" as="geometry"/>
                </mxCell>
                <mxCell id="300" value="" style="endArrow=classic;html=1;strokeColor=#FF8000;exitX=1;exitY=0.5;exitDx=0;exitDy=0;exitPerimeter=0;" edge="1" parent="1" source="299">
                    <mxGeometry width="50" height="50" relative="1" as="geometry">
                        <mxPoint x="300" y="360" as="sourcePoint"/>
                        <mxPoint x="910" y="500" as="targetPoint"/>
                    </mxGeometry>
                </mxCell>
                <mxCell id="302" value="relock" style="whiteSpace=wrap;html=1;aspect=fixed;" vertex="1" parent="1">
                    <mxGeometry x="40" y="680" width="80" height="80" as="geometry"/>
                </mxCell>
                <mxCell id="304" value="unlock all unlockable" style="ellipse;whiteSpace=wrap;html=1;aspect=fixed;" vertex="1" parent="1">
                    <mxGeometry x="160" y="680" width="80" height="80" as="geometry"/>
                </mxCell>
                <mxCell id="306" value="" style="endArrow=classic;html=1;strokeColor=#FFFFFF;entryX=0;entryY=0.5;entryDx=0;entryDy=0;fillColor=#FFFFFF;" edge="1" parent="1" target="304">
                    <mxGeometry width="50" height="50" relative="1" as="geometry">
                        <mxPoint x="120" y="720" as="sourcePoint"/>
                        <mxPoint x="170" y="670" as="targetPoint"/>
                    </mxGeometry>
                </mxCell>
                <mxCell id="308" value="cvxToLeaveUnlocked &lt;br&gt;+=&lt;br&gt;amountsToUnlockSinceLast" style="ellipse;whiteSpace=wrap;html=1;strokeColor=#FFFFFF;" vertex="1" parent="1">
                    <mxGeometry x="280" y="680" width="200" height="80" as="geometry"/>
                </mxCell>
                <mxCell id="309" value="" style="endArrow=classic;html=1;strokeColor=#FFFFFF;fillColor=#FFFFFF;entryX=0;entryY=0.5;entryDx=0;entryDy=0;exitX=1;exitY=0.5;exitDx=0;exitDy=0;" edge="1" parent="1" source="304" target="308">
                    <mxGeometry width="50" height="50" relative="1" as="geometry">
                        <mxPoint x="310" y="570" as="sourcePoint"/>
                        <mxPoint x="360" y="520" as="targetPoint"/>
                    </mxGeometry>
                </mxCell>
                <mxCell id="310" value="" style="endArrow=classic;html=1;strokeColor=#007FFF;fillColor=#FFFFFF;exitX=0.595;exitY=0.019;exitDx=0;exitDy=0;exitPerimeter=0;" edge="1" parent="1" source="308">
                    <mxGeometry width="50" height="50" relative="1" as="geometry">
                        <mxPoint x="310" y="570" as="sourcePoint"/>
                        <mxPoint x="920" y="660" as="targetPoint"/>
                        <Array as="points">
                            <mxPoint x="399" y="660"/>
                        </Array>
                    </mxGeometry>
                </mxCell>
                <mxCell id="311" value="" style="endArrow=classic;html=1;strokeColor=#FF8000;fillColor=#FFFFFF;entryX=0.5;entryY=0;entryDx=0;entryDy=0;" edge="1" parent="1" target="308">
                    <mxGeometry width="50" height="50" relative="1" as="geometry">
                        <mxPoint x="920" y="640" as="sourcePoint"/>
                        <mxPoint x="480" y="460" as="targetPoint"/>
                        <Array as="points">
                            <mxPoint x="380" y="640"/>
                        </Array>
                    </mxGeometry>
                </mxCell>
                <mxCell id="312" value="vlCvx.lock()&lt;br&gt;everything minus&lt;br&gt;cvxToLeaveUnlocked" style="ellipse;whiteSpace=wrap;html=1;strokeColor=#FFFFFF;" vertex="1" parent="1">
                    <mxGeometry x="520" y="680" width="200" height="80" as="geometry"/>
                </mxCell>
                <mxCell id="313" value="" style="endArrow=classic;html=1;strokeColor=#FFFFFF;fillColor=#FFFFFF;entryX=0;entryY=0.5;entryDx=0;entryDy=0;exitX=1;exitY=0.5;exitDx=0;exitDy=0;" edge="1" parent="1" source="308" target="312">
                    <mxGeometry width="50" height="50" relative="1" as="geometry">
                        <mxPoint x="430" y="800" as="sourcePoint"/>
                        <mxPoint x="480" y="750" as="targetPoint"/>
                    </mxGeometry>
                </mxCell>
                <mxCell id="316" value="lastRelockEpoch&lt;br&gt;=&lt;br&gt;currentEpoch" style="ellipse;whiteSpace=wrap;html=1;strokeColor=#FFFFFF;" vertex="1" parent="1">
                    <mxGeometry x="760" y="680" width="120" height="80" as="geometry"/>
                </mxCell>
                <mxCell id="317" value="" style="endArrow=classic;html=1;strokeColor=#FFFF00;fillColor=#FFFFFF;" edge="1" parent="1">
                    <mxGeometry width="50" height="50" relative="1" as="geometry">
                        <mxPoint x="920" y="620" as="sourcePoint"/>
                        <mxPoint x="360" y="680" as="targetPoint"/>
                        <Array as="points">
                            <mxPoint x="360" y="620"/>
                        </Array>
                    </mxGeometry>
                </mxCell>
                <mxCell id="318" value="" style="endArrow=classic;html=1;strokeColor=#FFFF00;fillColor=#FFFFFF;exitX=1;exitY=0.5;exitDx=0;exitDy=0;" edge="1" parent="1" source="316">
                    <mxGeometry width="50" height="50" relative="1" as="geometry">
                        <mxPoint x="530" y="500" as="sourcePoint"/>
                        <mxPoint x="920" y="720" as="targetPoint"/>
                    </mxGeometry>
                </mxCell>
                <mxCell id="319" value="withdraw" style="whiteSpace=wrap;html=1;aspect=fixed;" vertex="1" parent="1">
                    <mxGeometry x="40" y="900" width="80" height="80" as="geometry"/>
                </mxCell>
                <mxCell id="322" value="Validate withdraw (Check unlockEpoch, position.amount, etc)" style="ellipse;whiteSpace=wrap;html=1;strokeColor=#FFFFFF;" vertex="1" parent="1">
                    <mxGeometry x="160" y="900" width="160" height="80" as="geometry"/>
                </mxCell>
                <mxCell id="323" value="" style="endArrow=classic;html=1;strokeColor=#FFFFFF;fillColor=#FFFFFF;exitX=1;exitY=0.5;exitDx=0;exitDy=0;entryX=0;entryY=0.5;entryDx=0;entryDy=0;" edge="1" parent="1" source="319" target="322">
                    <mxGeometry width="50" height="50" relative="1" as="geometry">
                        <mxPoint x="420" y="730" as="sourcePoint"/>
                        <mxPoint x="470" y="680" as="targetPoint"/>
                    </mxGeometry>
                </mxCell>
                <mxCell id="324" value="" style="endArrow=classic;html=1;strokeColor=#FFFFFF;fillColor=#FFFFFF;exitX=1;exitY=0.5;exitDx=0;exitDy=0;" edge="1" parent="1" source="322">
                    <mxGeometry width="50" height="50" relative="1" as="geometry">
                        <mxPoint x="290" y="940" as="sourcePoint"/>
                        <mxPoint x="320" y="940" as="targetPoint"/>
                    </mxGeometry>
                </mxCell>
                <mxCell id="325" value="relock() if current epoch not yet relocked" style="ellipse;whiteSpace=wrap;html=1;strokeColor=#FFFFFF;" vertex="1" parent="1">
                    <mxGeometry x="360" y="900" width="120" height="80" as="geometry"/>
                </mxCell>
                <mxCell id="326" value="" style="endArrow=classic;html=1;strokeColor=#FF0000;fillColor=#FF0000;entryX=0.5;entryY=0;entryDx=0;entryDy=0;" edge="1" parent="1" target="322">
                    <mxGeometry width="50" height="50" relative="1" as="geometry">
                        <mxPoint x="920" y="840" as="sourcePoint"/>
                        <mxPoint x="220" y="880" as="targetPoint"/>
                        <Array as="points">
                            <mxPoint x="240" y="840"/>
                        </Array>
                    </mxGeometry>
                </mxCell>
                <mxCell id="328" value="" style="endArrow=classic;startArrow=classic;html=1;strokeColor=#FFFF00;fillColor=#FF0000;exitX=0.5;exitY=0;exitDx=0;exitDy=0;" edge="1" parent="1" source="325">
                    <mxGeometry width="50" height="50" relative="1" as="geometry">
                        <mxPoint x="380" y="900" as="sourcePoint"/>
                        <mxPoint x="920" y="860" as="targetPoint"/>
                        <Array as="points">
                            <mxPoint x="420" y="860"/>
                        </Array>
                    </mxGeometry>
                </mxCell>
                <mxCell id="329" value="" style="endArrow=classic;startArrow=classic;html=1;strokeColor=#FF0000;fillColor=#FF0000;" edge="1" parent="1">
                    <mxGeometry width="50" height="50" relative="1" as="geometry">
                        <mxPoint x="190" y="460" as="sourcePoint"/>
                        <mxPoint x="910" y="440" as="targetPoint"/>
                        <Array as="points">
                            <mxPoint x="190" y="440"/>
                        </Array>
                    </mxGeometry>
                </mxCell>
                <mxCell id="330" value="cvxToLeaveUnlocked&lt;br&gt;-=&lt;br&gt;position.amount" style="ellipse;whiteSpace=wrap;html=1;strokeColor=#FFFFFF;" vertex="1" parent="1">
                    <mxGeometry x="520" y="900" width="120" height="80" as="geometry"/>
                </mxCell>
                <mxCell id="332" value="" style="endArrow=classic;html=1;strokeColor=#007FFF;fillColor=#FF0000;exitX=0.5;exitY=0;exitDx=0;exitDy=0;" edge="1" parent="1" source="330">
                    <mxGeometry width="50" height="50" relative="1" as="geometry">
                        <mxPoint x="550" y="900" as="sourcePoint"/>
                        <mxPoint x="920" y="880" as="targetPoint"/>
                        <Array as="points">
                            <mxPoint x="580" y="880"/>
                        </Array>
                    </mxGeometry>
                </mxCell>
                <mxCell id="335" value="transfer cvx &amp;amp; set position.amount = 0" style="ellipse;whiteSpace=wrap;html=1;strokeColor=#FFFFFF;" vertex="1" parent="1">
                    <mxGeometry x="680" y="900" width="120" height="80" as="geometry"/>
                </mxCell>
                <mxCell id="336" value="" style="endArrow=classic;html=1;strokeColor=#FFFFFF;fillColor=#FF0000;entryX=0;entryY=0.5;entryDx=0;entryDy=0;" edge="1" parent="1" target="330">
                    <mxGeometry width="50" height="50" relative="1" as="geometry">
                        <mxPoint x="440" y="940" as="sourcePoint"/>
                        <mxPoint x="490" y="890" as="targetPoint"/>
                    </mxGeometry>
                </mxCell>
                <mxCell id="337" value="" style="endArrow=classic;html=1;strokeColor=#FFFFFF;fillColor=#FF0000;entryX=0;entryY=0.5;entryDx=0;entryDy=0;" edge="1" parent="1" target="335">
                    <mxGeometry width="50" height="50" relative="1" as="geometry">
                        <mxPoint x="600" y="940" as="sourcePoint"/>
                        <mxPoint x="650" y="890" as="targetPoint"/>
                    </mxGeometry>
                </mxCell>
                <mxCell id="338" value="" style="endArrow=classic;html=1;strokeColor=#FF0000;fillColor=#FF0000;exitX=0.5;exitY=0;exitDx=0;exitDy=0;" edge="1" parent="1" source="335">
                    <mxGeometry width="50" height="50" relative="1" as="geometry">
                        <mxPoint x="470" y="810" as="sourcePoint"/>
                        <mxPoint x="920" y="900" as="targetPoint"/>
                    </mxGeometry>
                </mxCell>
                <mxCell id="341" value="" style="endArrow=classic;html=1;strokeColor=#FFFFFF;fillColor=#FF0000;entryX=0;entryY=0.5;entryDx=0;entryDy=0;" edge="1" parent="1" target="325">
                    <mxGeometry width="50" height="50" relative="1" as="geometry">
                        <mxPoint x="320" y="940" as="sourcePoint"/>
                        <mxPoint x="370" y="890" as="targetPoint"/>
                    </mxGeometry>
                </mxCell>
            </root>
        </mxGraphModel>
    </diagram>
</mxfile>